<?xml version="1.0" encoding="UTF-8" standalone="no"?>
<!DOCTYPE svg PUBLIC "-//W3C//DTD SVG 1.1//EN"
 "http://www.w3.org/Graphics/SVG/1.1/DTD/svg11.dtd">
<!-- Generated by graphviz version 2.43.0 (0)
 -->
<!-- Title: %3 Pages: 1 -->
<svg width="3030pt" height="1140pt"
 viewBox="0.00 0.00 3030.30 1140.00" xmlns="http://www.w3.org/2000/svg" xmlns:xlink="http://www.w3.org/1999/xlink">
<g id="graph0" class="graph" transform="scale(1 1) rotate(0) translate(4 1136)">
<title>%3</title>
<polygon fill="white" stroke="transparent" points="-4,4 -4,-1136 3026.3,-1136 3026.3,4 -4,4"/>
<g id="clust1" class="cluster">
<title>cluster&#45;nid&#45;02</title>
<polygon fill="none" stroke="#cccccc" points="781.67,-1015 781.67,-1081 1229.67,-1081 1229.67,-1015 781.67,-1015"/>
</g>
<g id="clust2" class="cluster">
<title>cluster&#45;nid&#45;03</title>
<polygon fill="none" stroke="#cccccc" points="781.67,-885 781.67,-951 1229.67,-951 1229.67,-885 781.67,-885"/>
</g>
<g id="clust5" class="cluster">
<title>cluster&#45;nid&#45;06</title>
<polygon fill="none" stroke="#cccccc" points="8,-967 8,-1033 157.15,-1033 157.15,-967 8,-967"/>
</g>
<g id="clust7" class="cluster">
<title>cluster&#45;nid&#45;08</title>
<polygon fill="none" stroke="#cccccc" points="2208.27,-191 2208.27,-257 2627.28,-257 2627.28,-191 2208.27,-191"/>
</g>
<g id="clust8" class="cluster">
<title>cluster&#45;nid&#45;09</title>
<polygon fill="none" stroke="#cccccc" points="2208.27,-600 2208.27,-666 2627.28,-666 2627.28,-600 2208.27,-600"/>
</g>
<g id="clust10" class="cluster">
<title>cluster&#45;nid&#45;0b</title>
<polygon fill="none" stroke="#cccccc" points="737.64,-416 737.64,-724 1244.94,-724 1244.94,-416 737.64,-416"/>
</g>
<g id="clust11" class="cluster">
<title>cluster&#45;nid&#45;0c</title>
<polygon fill="none" stroke="#cccccc" points="1474.44,-956 1474.44,-1078 1952.24,-1078 1952.24,-956 1474.44,-956"/>
</g>
<g id="clust12" class="cluster">
<title>cluster&#45;nid&#45;0d</title>
<polygon fill="none" stroke="#cccccc" points="1474.44,-826 1474.44,-948 1952.24,-948 1952.24,-826 1474.44,-826"/>
</g>
<g id="clust14" class="cluster">
<title>cluster&#45;nid&#45;0f</title>
<polygon fill="none" stroke="#cccccc" points="2154.64,-786 2154.64,-860 2631.06,-860 2631.06,-786 2154.64,-786"/>
</g>
<g id="clust18" class="cluster">
<title>cluster&#45;nid&#45;12&#45;out</title>
<polygon fill="none" stroke="#cccccc" points="1114.91,-182 1114.91,-262 1274.44,-262 1274.44,-182 1114.91,-182"/>
</g>
<g id="clust20" class="cluster">
<title>cluster&#45;nid&#45;14&#45;in</title>
<polygon fill="none" stroke="#cccccc" points="2152.24,-1044 2152.24,-1124 2334.31,-1124 2334.31,-1044 2152.24,-1044"/>
</g>
<g id="clust24" class="cluster">
<title>cluster&#45;nid&#45;17&#45;in</title>
<polygon fill="none" stroke="#cccccc" points="2831.06,-783 2831.06,-863 3014.3,-863 3014.3,-783 2831.06,-783"/>
</g>
<g id="clust27" class="cluster">
<title>cluster&#45;nid&#45;18&#45;out</title>
<polygon fill="none" stroke="#cccccc" points="357.15,-280 357.15,-360 537.64,-360 537.64,-280 357.15,-280"/>
</g>
<g id="clust29" class="cluster">
<title>cluster&#45;nid&#45;19&#45;out</title>
<polygon fill="none" stroke="#cccccc" points="357.15,-786 357.15,-866 537.64,-866 537.64,-786 357.15,-786"/>
</g>
<g id="clust31" class="cluster">
<title>cluster&#45;nid&#45;1a&#45;out</title>
<polygon fill="none" stroke="#cccccc" points="357.15,-698 357.15,-778 537.64,-778 537.64,-698 357.15,-698"/>
</g>
<g id="clust32" class="cluster">
<title>cluster&#45;nid&#45;1b&#45;in</title>
<polygon fill="none" stroke="#cccccc" points="2153.02,-956 2153.02,-1036 2617.68,-1036 2617.68,-956 2153.02,-956"/>
</g>
<g id="clust33" class="cluster">
<title>cluster&#45;nid&#45;1b&#45;out</title>
<polygon fill="none" stroke="#cccccc" points="47.57,-368 47.57,-448 537.64,-448 537.64,-368 47.57,-368"/>
</g>
<g id="clust36" class="cluster">
<title>cluster&#45;nid&#45;1d&#45;out</title>
<polygon fill="none" stroke="#cccccc" points="364.91,-192 364.91,-272 529.88,-272 529.88,-192 364.91,-192"/>
</g>
<g id="clust37" class="cluster">
<title>cluster&#45;nid&#45;1e&#45;in</title>
<polygon fill="none" stroke="#cccccc" points="357.15,-960 357.15,-1040 537.64,-1040 537.64,-960 357.15,-960"/>
</g>
<g id="clust41" class="cluster">
<title>cluster&#45;nid&#45;21&#45;in</title>
<polygon fill="none" stroke="#cccccc" points="2152.29,-868 2152.29,-948 2334.26,-948 2334.26,-868 2152.29,-868"/>
</g>
<g id="clust43" class="cluster">
<title>cluster&#45;nid&#45;22</title>
<polygon fill="none" stroke="#cccccc" points="1474.44,-448 1474.44,-818 1952.24,-818 1952.24,-448 1474.44,-448"/>
</g>
<g id="clust44" class="cluster">
<title>cluster&#45;nid&#45;23</title>
<polygon fill="none" stroke="#cccccc" points="1474.44,-8 1474.44,-440 1952.24,-440 1952.24,-8 1474.44,-8"/>
</g>
<!-- nid&#45;02 -->
<g id="node1" class="node">
<title>nid&#45;02</title>
<ellipse fill="none" stroke="blue" cx="826.28" cy="-1048" rx="36.71" ry="25.41"/>
<text text-anchor="middle" x="826.28" y="-1050.8" font-family="Times,serif" font-size="14.00">0x02</text>
<text text-anchor="middle" x="826.28" y="-1036.8" font-family="Times,serif" font-size="14.00">Stereo</text>
</g>
<!-- nid&#45;02&#45;ampout -->
<g id="node2" class="node">
<title>nid&#45;02&#45;ampout</title>
<polygon fill="none" stroke="#0000ff" points="1221.67,-1048 1181.17,-1066 1181.17,-1030 1221.67,-1048"/>
</g>
<!-- nid&#45;02&#45;&gt;nid&#45;02&#45;ampout -->
<g id="edge1" class="edge">
<title>nid&#45;02&#45;&gt;nid&#45;02&#45;ampout</title>
<path fill="none" stroke="#0000ff" d="M863.07,-1048C940,-1048 1118.73,-1048 1175.81,-1048"/>
<polygon fill="#0000ff" stroke="#0000ff" points="1175.95,-1049.75 1180.95,-1048 1175.95,-1046.25 1175.95,-1049.75"/>
</g>
<!-- nid&#45;0c&#45;ampin&#45;2 -->
<g id="node24" class="node">
<title>nid&#45;0c&#45;ampin&#45;2</title>
<polygon fill="none" stroke="#0000ff" points="1643.84,-1048 1522.69,-1070 1522.69,-1026 1643.84,-1048"/>
<text text-anchor="middle" x="1563.07" y="-1043.8" font-family="Times,serif" font-size="14.00">0 (0x02)</text>
</g>
<!-- nid&#45;02&#45;ampout&#45;&gt;nid&#45;0c&#45;ampin&#45;2 -->
<g id="edge19" class="edge">
<title>nid&#45;02&#45;ampout&#45;&gt;nid&#45;0c&#45;ampin&#45;2</title>
<path fill="none" stroke="#333333" d="M1221.73,-1048C1282.28,-1048 1433.32,-1048 1512.25,-1048"/>
<polygon fill="#333333" stroke="#333333" points="1512.43,-1051.5 1522.43,-1048 1512.43,-1044.5 1512.43,-1051.5"/>
</g>
<!-- nid&#45;03 -->
<g id="node3" class="node">
<title>nid&#45;03</title>
<ellipse fill="none" stroke="blue" cx="826.28" cy="-918" rx="36.71" ry="25.41"/>
<text text-anchor="middle" x="826.28" y="-920.8" font-family="Times,serif" font-size="14.00">0x03</text>
<text text-anchor="middle" x="826.28" y="-906.8" font-family="Times,serif" font-size="14.00">Stereo</text>
</g>
<!-- nid&#45;03&#45;ampout -->
<g id="node4" class="node">
<title>nid&#45;03&#45;ampout</title>
<polygon fill="none" stroke="#0000ff" points="1221.67,-918 1181.17,-936 1181.17,-900 1221.67,-918"/>
</g>
<!-- nid&#45;03&#45;&gt;nid&#45;03&#45;ampout -->
<g id="edge2" class="edge">
<title>nid&#45;03&#45;&gt;nid&#45;03&#45;ampout</title>
<path fill="none" stroke="#0000ff" d="M863.07,-918C940,-918 1118.73,-918 1175.81,-918"/>
<polygon fill="#0000ff" stroke="#0000ff" points="1175.95,-919.75 1180.95,-918 1175.95,-916.25 1175.95,-919.75"/>
</g>
<!-- nid&#45;0d&#45;ampin&#45;3 -->
<g id="node27" class="node">
<title>nid&#45;0d&#45;ampin&#45;3</title>
<polygon fill="none" stroke="#0000ff" points="1643.84,-918 1522.69,-940 1522.69,-896 1643.84,-918"/>
<text text-anchor="middle" x="1563.07" y="-913.8" font-family="Times,serif" font-size="14.00">0 (0x03)</text>
</g>
<!-- nid&#45;03&#45;ampout&#45;&gt;nid&#45;0d&#45;ampin&#45;3 -->
<g id="edge23" class="edge">
<title>nid&#45;03&#45;ampout&#45;&gt;nid&#45;0d&#45;ampin&#45;3</title>
<path fill="none" stroke="#333333" d="M1221.73,-918C1282.28,-918 1433.32,-918 1512.25,-918"/>
<polygon fill="#333333" stroke="#333333" points="1512.43,-921.5 1522.43,-918 1512.43,-914.5 1512.43,-921.5"/>
</g>
<!-- nid&#45;06 -->
<g id="node5" class="node">
<title>nid&#45;06</title>
<ellipse fill="none" stroke="blue" cx="82.57" cy="-1000" rx="66.65" ry="25.41"/>
<text text-anchor="middle" x="82.57" y="-1002.8" font-family="Times,serif" font-size="14.00">0x06</text>
<text text-anchor="middle" x="82.57" y="-988.8" font-family="Times,serif" font-size="14.00">Stereo Digital</text>
</g>
<!-- nid&#45;1e&#45;in -->
<g id="node37" class="node">
<title>nid&#45;1e&#45;in</title>
<polygon fill="none" stroke="green" points="529.89,-1032 364.9,-1032 364.9,-968 529.89,-968 529.89,-1032"/>
<text text-anchor="middle" x="447.39" y="-1016.8" font-family="Times,serif" font-size="14.00">0x1e</text>
<text text-anchor="middle" x="447.39" y="-1002.8" font-family="Times,serif" font-size="14.00">[N/A] Speaker at Ext Rear</text>
<text text-anchor="middle" x="447.39" y="-988.8" font-family="Times,serif" font-size="14.00">Stereo Digital</text>
<text text-anchor="middle" x="447.39" y="-974.8" font-family="Times,serif" font-size="14.00">OUT Detect</text>
</g>
<!-- nid&#45;06&#45;&gt;nid&#45;1e&#45;in -->
<g id="edge33" class="edge">
<title>nid&#45;06&#45;&gt;nid&#45;1e&#45;in</title>
<path fill="none" stroke="#333333" d="M149.28,-1000C206.75,-1000 290.82,-1000 354.87,-1000"/>
<polygon fill="#333333" stroke="#333333" points="354.97,-1003.5 364.97,-1000 354.97,-996.5 354.97,-1003.5"/>
</g>
<!-- nid&#45;08 -->
<g id="node6" class="node">
<title>nid&#45;08</title>
<ellipse fill="none" stroke="red" cx="2582.68" cy="-224" rx="36.71" ry="25.41"/>
<text text-anchor="middle" x="2582.68" y="-226.8" font-family="Times,serif" font-size="14.00">0x08</text>
<text text-anchor="middle" x="2582.68" y="-212.8" font-family="Times,serif" font-size="14.00">Stereo</text>
</g>
<!-- nid&#45;08&#45;ampin -->
<g id="node7" class="node">
<title>nid&#45;08&#45;ampin</title>
<polygon fill="none" stroke="#3232f1" points="2270.27,-224 2229.77,-242 2229.77,-206 2270.27,-224"/>
</g>
<!-- nid&#45;08&#45;ampin&#45;&gt;nid&#45;08 -->
<g id="edge3" class="edge">
<title>nid&#45;08&#45;ampin&#45;&gt;nid&#45;08</title>
<path fill="none" stroke="#3232f1" d="M2270.47,-224C2328.94,-224 2470.48,-224 2540.73,-224"/>
<polygon fill="#3232f1" stroke="#3232f1" points="2541.07,-225.75 2546.07,-224 2541.07,-222.25 2541.07,-225.75"/>
</g>
<!-- nid&#45;23 -->
<g id="node8" class="node">
<title>nid&#45;23</title>
<polygon fill="none" stroke="black" points="1944,-224 1922.99,-253.29 1880.95,-253.29 1859.94,-224 1880.95,-194.71 1922.99,-194.71 1944,-224"/>
<text text-anchor="middle" x="1901.97" y="-226.8" font-family="Times,serif" font-size="14.00">0x23</text>
<text text-anchor="middle" x="1901.97" y="-212.8" font-family="Times,serif" font-size="14.00">Stereo</text>
</g>
<!-- nid&#45;23&#45;&gt;nid&#45;08&#45;ampin -->
<g id="edge4" class="edge">
<title>nid&#45;23&#45;&gt;nid&#45;08&#45;ampin</title>
<path fill="none" stroke="#333333" d="M1944.24,-224C2016.43,-224 2163.3,-224 2219.61,-224"/>
<polygon fill="#333333" stroke="#333333" points="2219.61,-227.5 2229.61,-224 2219.61,-220.5 2219.61,-227.5"/>
</g>
<!-- nid&#45;09 -->
<g id="node9" class="node">
<title>nid&#45;09</title>
<ellipse fill="none" stroke="red" cx="2582.68" cy="-633" rx="36.71" ry="25.41"/>
<text text-anchor="middle" x="2582.68" y="-635.8" font-family="Times,serif" font-size="14.00">0x09</text>
<text text-anchor="middle" x="2582.68" y="-621.8" font-family="Times,serif" font-size="14.00">Stereo</text>
</g>
<!-- nid&#45;09&#45;ampin -->
<g id="node10" class="node">
<title>nid&#45;09&#45;ampin</title>
<polygon fill="none" stroke="#c8c8c8" points="2270.27,-633 2229.77,-651 2229.77,-615 2270.27,-633"/>
</g>
<!-- nid&#45;09&#45;ampin&#45;&gt;nid&#45;09 -->
<g id="edge5" class="edge">
<title>nid&#45;09&#45;ampin&#45;&gt;nid&#45;09</title>
<path fill="none" stroke="#c8c8c8" d="M2270.47,-633C2328.94,-633 2470.48,-633 2540.73,-633"/>
<polygon fill="#c8c8c8" stroke="#c8c8c8" points="2541.07,-634.75 2546.07,-633 2541.07,-631.25 2541.07,-634.75"/>
</g>
<!-- nid&#45;22 -->
<g id="node11" class="node">
<title>nid&#45;22</title>
<polygon fill="none" stroke="black" points="1944,-633 1922.99,-662.29 1880.95,-662.29 1859.94,-633 1880.95,-603.71 1922.99,-603.71 1944,-633"/>
<text text-anchor="middle" x="1901.97" y="-635.8" font-family="Times,serif" font-size="14.00">0x22</text>
<text text-anchor="middle" x="1901.97" y="-621.8" font-family="Times,serif" font-size="14.00">Stereo</text>
</g>
<!-- nid&#45;22&#45;&gt;nid&#45;09&#45;ampin -->
<g id="edge6" class="edge">
<title>nid&#45;22&#45;&gt;nid&#45;09&#45;ampin</title>
<path fill="none" stroke="#333333" d="M1944.24,-633C2016.43,-633 2163.3,-633 2219.61,-633"/>
<polygon fill="#333333" stroke="#333333" points="2219.61,-636.5 2229.61,-633 2219.61,-629.5 2219.61,-636.5"/>
</g>
<!-- nid&#45;0b -->
<g id="node12" class="node">
<title>nid&#45;0b</title>
<polygon fill="none" stroke="black" points="1236.71,-601 1215.69,-630.29 1173.66,-630.29 1152.64,-601 1173.66,-571.71 1215.69,-571.71 1236.71,-601"/>
<text text-anchor="middle" x="1194.67" y="-603.8" font-family="Times,serif" font-size="14.00">0x0b</text>
<text text-anchor="middle" x="1194.67" y="-589.8" font-family="Times,serif" font-size="14.00">Stereo</text>
</g>
<!-- nid&#45;0c&#45;ampin&#45;11 -->
<g id="node25" class="node">
<title>nid&#45;0c&#45;ampin&#45;11</title>
<polygon fill="none" stroke="#0000ff" points="1643.84,-986 1522.69,-1008 1522.69,-964 1643.84,-986"/>
<text text-anchor="middle" x="1563.07" y="-981.8" font-family="Times,serif" font-size="14.00">1 (0x0b)</text>
</g>
<!-- nid&#45;0b&#45;&gt;nid&#45;0c&#45;ampin&#45;11 -->
<g id="edge20" class="edge">
<title>nid&#45;0b&#45;&gt;nid&#45;0c&#45;ampin&#45;11</title>
<path fill="none" stroke="#333333" d="M1211.59,-630.29C1248.97,-696.57 1348.81,-859.47 1474.44,-952 1485.86,-960.41 1499.62,-967.03 1512.83,-972.1"/>
<polygon fill="#333333" stroke="#333333" points="1511.7,-975.42 1522.3,-975.53 1514.08,-968.84 1511.7,-975.42"/>
</g>
<!-- nid&#45;0d&#45;ampin&#45;11 -->
<g id="node28" class="node">
<title>nid&#45;0d&#45;ampin&#45;11</title>
<polygon fill="none" stroke="#0000ff" points="1643.84,-856 1522.69,-878 1522.69,-834 1643.84,-856"/>
<text text-anchor="middle" x="1563.07" y="-851.8" font-family="Times,serif" font-size="14.00">1 (0x0b)</text>
</g>
<!-- nid&#45;0b&#45;&gt;nid&#45;0d&#45;ampin&#45;11 -->
<g id="edge24" class="edge">
<title>nid&#45;0b&#45;&gt;nid&#45;0d&#45;ampin&#45;11</title>
<path fill="none" stroke="#333333" d="M1219.94,-624.48C1266.19,-668.22 1371.55,-763.06 1474.44,-822 1486.4,-828.85 1500.01,-834.88 1512.88,-839.89"/>
<polygon fill="#333333" stroke="#333333" points="1511.94,-843.28 1522.53,-843.52 1514.4,-836.72 1511.94,-843.28"/>
</g>
<!-- nid&#45;22&#45;ampin&#45;11 -->
<g id="node44" class="node">
<title>nid&#45;22&#45;ampin&#45;11</title>
<polygon fill="none" stroke="#c8c8c8" points="1643.84,-664 1522.69,-686 1522.69,-642 1643.84,-664"/>
<text text-anchor="middle" x="1563.07" y="-659.8" font-family="Times,serif" font-size="14.00">5 (0x0b)</text>
</g>
<!-- nid&#45;0b&#45;&gt;nid&#45;22&#45;ampin&#45;11 -->
<g id="edge47" class="edge">
<title>nid&#45;0b&#45;&gt;nid&#45;22&#45;ampin&#45;11</title>
<path fill="none" stroke="#333333" d="M1232.48,-607.33C1298.69,-618.71 1437.9,-642.65 1512.45,-655.47"/>
<polygon fill="#333333" stroke="#333333" points="1512.08,-658.95 1522.52,-657.2 1513.26,-652.06 1512.08,-658.95"/>
</g>
<!-- nid&#45;23&#45;ampin&#45;11 -->
<g id="node50" class="node">
<title>nid&#45;23&#45;ampin&#45;11</title>
<polygon fill="none" stroke="#c8c8c8" points="1643.84,-286 1522.69,-308 1522.69,-264 1643.84,-286"/>
<text text-anchor="middle" x="1563.07" y="-281.8" font-family="Times,serif" font-size="14.00">5 (0x0b)</text>
</g>
<!-- nid&#45;0b&#45;&gt;nid&#45;23&#45;ampin&#45;11 -->
<g id="edge60" class="edge">
<title>nid&#45;0b&#45;&gt;nid&#45;23&#45;ampin&#45;11</title>
<path fill="none" stroke="#333333" d="M1216.59,-572.21C1259.07,-515.63 1361.11,-389.22 1474.44,-317 1486.04,-309.61 1499.64,-303.7 1512.61,-299.11"/>
<polygon fill="#333333" stroke="#333333" points="1513.99,-302.34 1522.37,-295.85 1511.77,-295.7 1513.99,-302.34"/>
</g>
<!-- nid&#45;0b&#45;ampin&#45;24 -->
<g id="node13" class="node">
<title>nid&#45;0b&#45;ampin&#45;24</title>
<polygon fill="none" stroke="#c8c8c8" points="907.04,-508 785.89,-530 785.89,-486 907.04,-508"/>
<text text-anchor="middle" x="826.28" y="-503.8" font-family="Times,serif" font-size="14.00">0 (0x18)</text>
</g>
<!-- nid&#45;0b&#45;ampin&#45;24&#45;&gt;nid&#45;0b -->
<g id="edge7" class="edge">
<title>nid&#45;0b&#45;ampin&#45;24&#45;&gt;nid&#45;0b</title>
<path fill="none" stroke="#c8c8c8" d="M860.76,-516.5C928.39,-533.67 1081,-572.4 1153.7,-590.85"/>
<polygon fill="#c8c8c8" stroke="#c8c8c8" points="1153.52,-592.61 1158.8,-592.15 1154.38,-589.22 1153.52,-592.61"/>
</g>
<!-- nid&#45;0b&#45;ampin&#45;25 -->
<g id="node14" class="node">
<title>nid&#45;0b&#45;ampin&#45;25</title>
<polygon fill="none" stroke="#c8c8c8" points="907.04,-694 785.89,-716 785.89,-672 907.04,-694"/>
<text text-anchor="middle" x="826.28" y="-689.8" font-family="Times,serif" font-size="14.00">1 (0x19)</text>
</g>
<!-- nid&#45;0b&#45;ampin&#45;25&#45;&gt;nid&#45;0b -->
<g id="edge8" class="edge">
<title>nid&#45;0b&#45;ampin&#45;25&#45;&gt;nid&#45;0b</title>
<path fill="none" stroke="#c8c8c8" d="M860.76,-685.5C928.39,-668.33 1081,-629.6 1153.7,-611.15"/>
<polygon fill="#c8c8c8" stroke="#c8c8c8" points="1154.38,-612.78 1158.8,-609.85 1153.52,-609.39 1154.38,-612.78"/>
</g>
<!-- nid&#45;0b&#45;ampin&#45;26 -->
<g id="node15" class="node">
<title>nid&#45;0b&#45;ampin&#45;26</title>
<polygon fill="none" stroke="#c8c8c8" points="906.05,-632 786.39,-654 786.39,-610 906.05,-632"/>
<text text-anchor="middle" x="826.28" y="-627.8" font-family="Times,serif" font-size="14.00">2 (0x1a)</text>
</g>
<!-- nid&#45;0b&#45;ampin&#45;26&#45;&gt;nid&#45;0b -->
<g id="edge9" class="edge">
<title>nid&#45;0b&#45;ampin&#45;26&#45;&gt;nid&#45;0b</title>
<path fill="none" stroke="#c8c8c8" d="M881.34,-627.43C954.19,-621.26 1082.47,-610.41 1149.72,-604.72"/>
<polygon fill="#c8c8c8" stroke="#c8c8c8" points="1150.02,-606.45 1154.85,-604.28 1149.72,-602.96 1150.02,-606.45"/>
</g>
<!-- nid&#45;0b&#45;ampin&#45;27 -->
<g id="node16" class="node">
<title>nid&#45;0b&#45;ampin&#45;27</title>
<polygon fill="none" stroke="#c8c8c8" points="907.04,-570 785.89,-592 785.89,-548 907.04,-570"/>
<text text-anchor="middle" x="826.28" y="-565.8" font-family="Times,serif" font-size="14.00">3 (0x1b)</text>
</g>
<!-- nid&#45;0b&#45;ampin&#45;27&#45;&gt;nid&#45;0b -->
<g id="edge10" class="edge">
<title>nid&#45;0b&#45;ampin&#45;27&#45;&gt;nid&#45;0b</title>
<path fill="none" stroke="#c8c8c8" d="M881.73,-574.61C954.69,-580.78 1082.72,-591.61 1149.82,-597.29"/>
<polygon fill="#c8c8c8" stroke="#c8c8c8" points="1149.81,-599.05 1154.94,-597.72 1150.11,-595.56 1149.81,-599.05"/>
</g>
<!-- nid&#45;0b&#45;ampin&#45;29 -->
<g id="node17" class="node">
<title>nid&#45;0b&#45;ampin&#45;29</title>
<polygon fill="none" stroke="#c8c8c8" points="907.04,-446 785.89,-468 785.89,-424 907.04,-446"/>
<text text-anchor="middle" x="826.28" y="-441.8" font-family="Times,serif" font-size="14.00">4 (0x1d)</text>
</g>
<!-- nid&#45;0b&#45;ampin&#45;29&#45;&gt;nid&#45;0b -->
<g id="edge11" class="edge">
<title>nid&#45;0b&#45;ampin&#45;29&#45;&gt;nid&#45;0b</title>
<path fill="none" stroke="#c8c8c8" d="M853.19,-455.81C868.81,-461.79 889.07,-469.67 906.91,-477 997.74,-514.3 1103.51,-560.86 1157.67,-584.93"/>
<polygon fill="#c8c8c8" stroke="#c8c8c8" points="1157.15,-586.61 1162.43,-587.04 1158.58,-583.41 1157.15,-586.61"/>
</g>
<!-- nid&#45;18&#45;out -->
<g id="node18" class="node">
<title>nid&#45;18&#45;out</title>
<polygon fill="none" stroke="green" points="529.89,-352 364.9,-352 364.9,-288 529.89,-288 529.89,-352"/>
<text text-anchor="middle" x="447.39" y="-336.8" font-family="Times,serif" font-size="14.00">0x18</text>
<text text-anchor="middle" x="447.39" y="-322.8" font-family="Times,serif" font-size="14.00">[N/A] Speaker at Ext Rear</text>
<text text-anchor="middle" x="447.39" y="-308.8" font-family="Times,serif" font-size="14.00">Stereo</text>
<text text-anchor="middle" x="447.39" y="-294.8" font-family="Times,serif" font-size="14.00">IN Detect</text>
</g>
<!-- nid&#45;18&#45;out&#45;&gt;nid&#45;0b&#45;ampin&#45;24 -->
<g id="edge12" class="edge">
<title>nid&#45;18&#45;out&#45;&gt;nid&#45;0b&#45;ampin&#45;24</title>
<path fill="none" stroke="#333333" d="M514.41,-352.02C522.27,-355.99 530.16,-360.04 537.64,-364 627.91,-411.7 644.72,-434.7 737.64,-477 749.93,-482.59 763.55,-487.84 776.31,-492.37"/>
<polygon fill="#333333" stroke="#333333" points="775.28,-495.72 785.87,-495.69 777.58,-489.11 775.28,-495.72"/>
</g>
<!-- nid&#45;22&#45;ampin&#45;24 -->
<g id="node39" class="node">
<title>nid&#45;22&#45;ampin&#45;24</title>
<polygon fill="none" stroke="#c8c8c8" points="1643.84,-540 1522.69,-562 1522.69,-518 1643.84,-540"/>
<text text-anchor="middle" x="1563.07" y="-535.8" font-family="Times,serif" font-size="14.00">0 (0x18)</text>
</g>
<!-- nid&#45;18&#45;out&#45;&gt;nid&#45;22&#45;ampin&#45;24 -->
<g id="edge42" class="edge">
<title>nid&#45;18&#45;out&#45;&gt;nid&#45;22&#45;ampin&#45;24</title>
<path fill="none" stroke="#333333" d="M529.75,-313.72C680.79,-304.78 1012.96,-297.94 1274.44,-384 1374.01,-416.77 1380.02,-463.47 1474.44,-509 1486.6,-514.86 1500.18,-520.21 1512.94,-524.74"/>
<polygon fill="#333333" stroke="#333333" points="1511.91,-528.09 1522.5,-528.05 1514.2,-521.47 1511.91,-528.09"/>
</g>
<!-- nid&#45;23&#45;ampin&#45;24 -->
<g id="node45" class="node">
<title>nid&#45;23&#45;ampin&#45;24</title>
<polygon fill="none" stroke="#c8c8c8" points="1643.84,-100 1522.69,-122 1522.69,-78 1643.84,-100"/>
<text text-anchor="middle" x="1563.07" y="-95.8" font-family="Times,serif" font-size="14.00">0 (0x18)</text>
</g>
<!-- nid&#45;18&#45;out&#45;&gt;nid&#45;23&#45;ampin&#45;24 -->
<g id="edge55" class="edge">
<title>nid&#45;18&#45;out&#45;&gt;nid&#45;23&#45;ampin&#45;24</title>
<path fill="none" stroke="#333333" d="M529.89,-294.86C654.65,-257.32 901.06,-186.86 1114.91,-148 1258.01,-122 1429.62,-108.42 1512.48,-102.96"/>
<polygon fill="#333333" stroke="#333333" points="1512.87,-106.44 1522.62,-102.3 1512.41,-99.45 1512.87,-106.44"/>
</g>
<!-- nid&#45;19&#45;out -->
<g id="node19" class="node">
<title>nid&#45;19&#45;out</title>
<polygon fill="none" stroke="green" points="529.89,-858 364.9,-858 364.9,-794 529.89,-794 529.89,-858"/>
<text text-anchor="middle" x="447.39" y="-842.8" font-family="Times,serif" font-size="14.00">0x19</text>
<text text-anchor="middle" x="447.39" y="-828.8" font-family="Times,serif" font-size="14.00">[N/A] Speaker at Ext Rear</text>
<text text-anchor="middle" x="447.39" y="-814.8" font-family="Times,serif" font-size="14.00">Stereo</text>
<text text-anchor="middle" x="447.39" y="-800.8" font-family="Times,serif" font-size="14.00">IN Detect</text>
</g>
<!-- nid&#45;19&#45;out&#45;&gt;nid&#45;0b&#45;ampin&#45;25 -->
<g id="edge13" class="edge">
<title>nid&#45;19&#45;out&#45;&gt;nid&#45;0b&#45;ampin&#45;25</title>
<path fill="none" stroke="#333333" d="M529.71,-797.52C604.68,-771.26 713.53,-733.14 776.08,-711.23"/>
<polygon fill="#333333" stroke="#333333" points="777.42,-714.47 785.71,-707.86 775.11,-707.86 777.42,-714.47"/>
</g>
<!-- nid&#45;22&#45;ampin&#45;25 -->
<g id="node40" class="node">
<title>nid&#45;22&#45;ampin&#45;25</title>
<polygon fill="none" stroke="#c8c8c8" points="1643.84,-788 1522.69,-810 1522.69,-766 1643.84,-788"/>
<text text-anchor="middle" x="1563.07" y="-783.8" font-family="Times,serif" font-size="14.00">1 (0x19)</text>
</g>
<!-- nid&#45;19&#45;out&#45;&gt;nid&#45;22&#45;ampin&#45;25 -->
<g id="edge43" class="edge">
<title>nid&#45;19&#45;out&#45;&gt;nid&#45;22&#45;ampin&#45;25</title>
<path fill="none" stroke="#333333" d="M529.76,-831.57C678.08,-840.66 1002.27,-855.63 1274.44,-834 1358.61,-827.31 1455.35,-809.78 1512.45,-798.39"/>
<polygon fill="#333333" stroke="#333333" points="1513.18,-801.82 1522.3,-796.41 1511.8,-794.95 1513.18,-801.82"/>
</g>
<!-- nid&#45;23&#45;ampin&#45;25 -->
<g id="node46" class="node">
<title>nid&#45;23&#45;ampin&#45;25</title>
<polygon fill="none" stroke="#c8c8c8" points="1643.84,-410 1522.69,-432 1522.69,-388 1643.84,-410"/>
<text text-anchor="middle" x="1563.07" y="-405.8" font-family="Times,serif" font-size="14.00">1 (0x19)</text>
</g>
<!-- nid&#45;19&#45;out&#45;&gt;nid&#45;23&#45;ampin&#45;25 -->
<g id="edge56" class="edge">
<title>nid&#45;19&#45;out&#45;&gt;nid&#45;23&#45;ampin&#45;25</title>
<path fill="none" stroke="#333333" d="M529.91,-827.57C713.03,-829.69 1150.64,-826.57 1274.44,-752 1414.25,-667.79 1347.78,-546.95 1474.44,-444 1485.65,-434.89 1499.58,-428.01 1513.02,-422.92"/>
<polygon fill="#333333" stroke="#333333" points="1514.4,-426.14 1522.67,-419.51 1512.07,-419.54 1514.4,-426.14"/>
</g>
<!-- nid&#45;1a&#45;out -->
<g id="node20" class="node">
<title>nid&#45;1a&#45;out</title>
<polygon fill="none" stroke="green" points="529.89,-770 364.9,-770 364.9,-706 529.89,-706 529.89,-770"/>
<text text-anchor="middle" x="447.39" y="-754.8" font-family="Times,serif" font-size="14.00">0x1a</text>
<text text-anchor="middle" x="447.39" y="-740.8" font-family="Times,serif" font-size="14.00">[N/A] Speaker at Ext Rear</text>
<text text-anchor="middle" x="447.39" y="-726.8" font-family="Times,serif" font-size="14.00">Stereo</text>
<text text-anchor="middle" x="447.39" y="-712.8" font-family="Times,serif" font-size="14.00">IN Detect</text>
</g>
<!-- nid&#45;1a&#45;out&#45;&gt;nid&#45;0b&#45;ampin&#45;26 -->
<g id="edge14" class="edge">
<title>nid&#45;1a&#45;out&#45;&gt;nid&#45;0b&#45;ampin&#45;26</title>
<path fill="none" stroke="#333333" d="M529.71,-715.13C604.73,-694.03 713.68,-663.39 776.2,-645.8"/>
<polygon fill="#333333" stroke="#333333" points="777.52,-649.07 786.2,-642.99 775.63,-642.33 777.52,-649.07"/>
</g>
<!-- nid&#45;22&#45;ampin&#45;26 -->
<g id="node41" class="node">
<title>nid&#45;22&#45;ampin&#45;26</title>
<polygon fill="none" stroke="#c8c8c8" points="1642.85,-726 1523.18,-748 1523.18,-704 1642.85,-726"/>
<text text-anchor="middle" x="1563.07" y="-721.8" font-family="Times,serif" font-size="14.00">2 (0x1a)</text>
</g>
<!-- nid&#45;1a&#45;out&#45;&gt;nid&#45;22&#45;ampin&#45;26 -->
<g id="edge44" class="edge">
<title>nid&#45;1a&#45;out&#45;&gt;nid&#45;22&#45;ampin&#45;26</title>
<path fill="none" stroke="#333333" d="M529.67,-745.13C587.6,-749.84 667.34,-755.57 737.64,-758 976.08,-766.23 1036.23,-771.21 1274.44,-758 1358.5,-753.34 1455.76,-741.07 1512.91,-733.15"/>
<polygon fill="#333333" stroke="#333333" points="1513.69,-736.57 1523.11,-731.72 1512.72,-729.64 1513.69,-736.57"/>
</g>
<!-- nid&#45;23&#45;ampin&#45;26 -->
<g id="node47" class="node">
<title>nid&#45;23&#45;ampin&#45;26</title>
<polygon fill="none" stroke="#c8c8c8" points="1642.85,-348 1523.18,-370 1523.18,-326 1642.85,-348"/>
<text text-anchor="middle" x="1563.07" y="-343.8" font-family="Times,serif" font-size="14.00">2 (0x1a)</text>
</g>
<!-- nid&#45;1a&#45;out&#45;&gt;nid&#45;23&#45;ampin&#45;26 -->
<g id="edge57" class="edge">
<title>nid&#45;1a&#45;out&#45;&gt;nid&#45;23&#45;ampin&#45;26</title>
<path fill="none" stroke="#333333" d="M529.71,-741.55C725.47,-749.44 1211.45,-765.01 1274.44,-728 1428.57,-637.43 1337.15,-493.51 1474.44,-379 1485.51,-369.77 1499.52,-363.2 1513.08,-358.57"/>
<polygon fill="#333333" stroke="#333333" points="1514.32,-361.85 1522.82,-355.53 1512.23,-355.17 1514.32,-361.85"/>
</g>
<!-- nid&#45;1b&#45;out -->
<g id="node21" class="node">
<title>nid&#45;1b&#45;out</title>
<polygon fill="none" stroke="green" points="529.89,-440 364.9,-440 364.9,-376 529.89,-376 529.89,-440"/>
<text text-anchor="middle" x="447.39" y="-424.8" font-family="Times,serif" font-size="14.00">0x1b</text>
<text text-anchor="middle" x="447.39" y="-410.8" font-family="Times,serif" font-size="14.00">[N/A] Speaker at Ext Rear</text>
<text text-anchor="middle" x="447.39" y="-396.8" font-family="Times,serif" font-size="14.00">Stereo</text>
<text text-anchor="middle" x="447.39" y="-382.8" font-family="Times,serif" font-size="14.00">IN OUT HP EAPD Detect</text>
</g>
<!-- nid&#45;1b&#45;out&#45;&gt;nid&#45;0b&#45;ampin&#45;27 -->
<g id="edge15" class="edge">
<title>nid&#45;1b&#45;out&#45;&gt;nid&#45;0b&#45;ampin&#45;27</title>
<path fill="none" stroke="#333333" d="M514.91,-440.08C573.09,-467.66 660.17,-507.82 737.64,-539 750.05,-543.99 763.61,-549 776.27,-553.49"/>
<polygon fill="#333333" stroke="#333333" points="775.15,-556.81 785.75,-556.82 777.47,-550.21 775.15,-556.81"/>
</g>
<!-- nid&#45;22&#45;ampin&#45;27 -->
<g id="node42" class="node">
<title>nid&#45;22&#45;ampin&#45;27</title>
<polygon fill="none" stroke="#c8c8c8" points="1643.84,-602 1522.69,-624 1522.69,-580 1643.84,-602"/>
<text text-anchor="middle" x="1563.07" y="-597.8" font-family="Times,serif" font-size="14.00">3 (0x1b)</text>
</g>
<!-- nid&#45;1b&#45;out&#45;&gt;nid&#45;22&#45;ampin&#45;27 -->
<g id="edge45" class="edge">
<title>nid&#45;1b&#45;out&#45;&gt;nid&#45;22&#45;ampin&#45;27</title>
<path fill="none" stroke="#333333" d="M529.92,-401.68C710.54,-388.77 1139.07,-364.38 1274.44,-412 1381.56,-449.68 1375.1,-515.98 1474.44,-571 1486.36,-577.61 1499.96,-583.23 1512.83,-587.79"/>
<polygon fill="#333333" stroke="#333333" points="1511.89,-591.17 1522.48,-591.08 1514.14,-584.55 1511.89,-591.17"/>
</g>
<!-- nid&#45;23&#45;ampin&#45;27 -->
<g id="node48" class="node">
<title>nid&#45;23&#45;ampin&#45;27</title>
<polygon fill="none" stroke="#c8c8c8" points="1643.84,-162 1522.69,-184 1522.69,-140 1643.84,-162"/>
<text text-anchor="middle" x="1563.07" y="-157.8" font-family="Times,serif" font-size="14.00">3 (0x1b)</text>
</g>
<!-- nid&#45;1b&#45;out&#45;&gt;nid&#45;23&#45;ampin&#45;27 -->
<g id="edge58" class="edge">
<title>nid&#45;1b&#45;out&#45;&gt;nid&#45;23&#45;ampin&#45;27</title>
<path fill="none" stroke="#333333" d="M518.99,-375.8C638.63,-323.03 890.17,-219.83 1114.91,-178 1257.17,-151.52 1429.17,-155.11 1512.3,-159.02"/>
<polygon fill="#333333" stroke="#333333" points="1512.31,-162.53 1522.47,-159.52 1512.65,-155.54 1512.31,-162.53"/>
</g>
<!-- nid&#45;1d&#45;out -->
<g id="node22" class="node">
<title>nid&#45;1d&#45;out</title>
<polygon fill="none" stroke="green" points="521.86,-264 372.93,-264 372.93,-200 521.86,-200 521.86,-264"/>
<text text-anchor="middle" x="447.39" y="-248.8" font-family="Times,serif" font-size="14.00">0x1d</text>
<text text-anchor="middle" x="447.39" y="-234.8" font-family="Times,serif" font-size="14.00">[N/A] Other at Ext N/A</text>
<text text-anchor="middle" x="447.39" y="-220.8" font-family="Times,serif" font-size="14.00">Mono</text>
<text text-anchor="middle" x="447.39" y="-206.8" font-family="Times,serif" font-size="14.00">IN</text>
</g>
<!-- nid&#45;1d&#45;out&#45;&gt;nid&#45;0b&#45;ampin&#45;29 -->
<g id="edge16" class="edge">
<title>nid&#45;1d&#45;out&#45;&gt;nid&#45;0b&#45;ampin&#45;29</title>
<path fill="none" stroke="#333333" d="M514.96,-264.13C522.65,-268.04 530.35,-272.05 537.64,-276 626.51,-324.08 727.6,-385.43 783.15,-419.74"/>
<polygon fill="#333333" stroke="#333333" points="781.31,-422.72 791.66,-425.01 785,-416.77 781.31,-422.72"/>
</g>
<!-- nid&#45;22&#45;ampin&#45;29 -->
<g id="node43" class="node">
<title>nid&#45;22&#45;ampin&#45;29</title>
<polygon fill="none" stroke="#c8c8c8" points="1643.84,-478 1522.69,-500 1522.69,-456 1643.84,-478"/>
<text text-anchor="middle" x="1563.07" y="-473.8" font-family="Times,serif" font-size="14.00">4 (0x1d)</text>
</g>
<!-- nid&#45;1d&#45;out&#45;&gt;nid&#45;22&#45;ampin&#45;29 -->
<g id="edge46" class="edge">
<title>nid&#45;1d&#45;out&#45;&gt;nid&#45;22&#45;ampin&#45;29</title>
<path fill="none" stroke="#333333" d="M522.05,-233.09C668.68,-237.1 1006.09,-255.59 1274.44,-340 1370.01,-370.06 1383.16,-402.71 1474.44,-444 1486.76,-449.57 1500.29,-455.1 1512.95,-460.03"/>
<polygon fill="#333333" stroke="#333333" points="1511.84,-463.35 1522.43,-463.67 1514.35,-456.82 1511.84,-463.35"/>
</g>
<!-- nid&#45;23&#45;ampin&#45;29 -->
<g id="node49" class="node">
<title>nid&#45;23&#45;ampin&#45;29</title>
<polygon fill="none" stroke="#c8c8c8" points="1643.84,-38 1522.69,-60 1522.69,-16 1643.84,-38"/>
<text text-anchor="middle" x="1563.07" y="-33.8" font-family="Times,serif" font-size="14.00">4 (0x1d)</text>
</g>
<!-- nid&#45;1d&#45;out&#45;&gt;nid&#45;23&#45;ampin&#45;29 -->
<g id="edge59" class="edge">
<title>nid&#45;1d&#45;out&#45;&gt;nid&#45;23&#45;ampin&#45;29</title>
<path fill="none" stroke="#333333" d="M502.17,-199.86C558.64,-167.86 651.11,-120.39 737.64,-98 1023.74,-23.96 1383.01,-30.21 1512.62,-35.49"/>
<polygon fill="#333333" stroke="#333333" points="1512.5,-38.99 1522.64,-35.92 1512.79,-31.99 1512.5,-38.99"/>
</g>
<!-- nid&#45;0c -->
<g id="node23" class="node">
<title>nid&#45;0c</title>
<polygon fill="none" stroke="black" points="1944,-996 1922.99,-1025.29 1880.95,-1025.29 1859.94,-996 1880.95,-966.71 1922.99,-966.71 1944,-996"/>
<text text-anchor="middle" x="1901.97" y="-998.8" font-family="Times,serif" font-size="14.00">0x0c</text>
<text text-anchor="middle" x="1901.97" y="-984.8" font-family="Times,serif" font-size="14.00">Stereo</text>
</g>
<!-- nid&#45;14&#45;in -->
<g id="node32" class="node">
<title>nid&#45;14&#45;in</title>
<polygon fill="none" stroke="green" points="2326.34,-1116 2160.2,-1116 2160.2,-1052 2326.34,-1052 2326.34,-1116"/>
<text text-anchor="middle" x="2243.27" y="-1100.8" font-family="Times,serif" font-size="14.00">0x14</text>
<text text-anchor="middle" x="2243.27" y="-1086.8" font-family="Times,serif" font-size="14.00">[Fixed] Speaker at Int N/A</text>
<text text-anchor="middle" x="2243.27" y="-1072.8" font-family="Times,serif" font-size="14.00">Stereo</text>
<text text-anchor="middle" x="2243.27" y="-1058.8" font-family="Times,serif" font-size="14.00">OUT EAPD Detect</text>
</g>
<!-- nid&#45;0c&#45;&gt;nid&#45;14&#45;in -->
<g id="edge27" class="edge">
<title>nid&#45;0c&#45;&gt;nid&#45;14&#45;in</title>
<path fill="none" stroke="#333333" d="M1937.69,-1005C1987.29,-1017.87 2080.2,-1041.97 2150.42,-1060.18"/>
<polygon fill="#333333" stroke="#333333" points="2149.61,-1063.58 2160.17,-1062.71 2151.37,-1056.81 2149.61,-1063.58"/>
</g>
<!-- nid&#45;1b&#45;in -->
<g id="node34" class="node">
<title>nid&#45;1b&#45;in</title>
<polygon fill="none" stroke="green" points="2325.77,-1028 2160.77,-1028 2160.77,-964 2325.77,-964 2325.77,-1028"/>
<text text-anchor="middle" x="2243.27" y="-1012.8" font-family="Times,serif" font-size="14.00">0x1b</text>
<text text-anchor="middle" x="2243.27" y="-998.8" font-family="Times,serif" font-size="14.00">[N/A] Speaker at Ext Rear</text>
<text text-anchor="middle" x="2243.27" y="-984.8" font-family="Times,serif" font-size="14.00">Stereo</text>
<text text-anchor="middle" x="2243.27" y="-970.8" font-family="Times,serif" font-size="14.00">IN OUT HP EAPD Detect</text>
</g>
<!-- nid&#45;0c&#45;&gt;nid&#45;1b&#45;in -->
<g id="edge31" class="edge">
<title>nid&#45;0c&#45;&gt;nid&#45;1b&#45;in</title>
<path fill="none" stroke="#333333" d="M1944.24,-996C1995.22,-996 2083.46,-996 2150.73,-996"/>
<polygon fill="#333333" stroke="#333333" points="2150.92,-999.5 2160.92,-996 2150.92,-992.5 2150.92,-999.5"/>
</g>
<!-- nid&#45;21&#45;in -->
<g id="node38" class="node">
<title>nid&#45;21&#45;in</title>
<polygon fill="none" stroke="green" points="2326.24,-940 2160.3,-940 2160.3,-876 2326.24,-876 2326.24,-940"/>
<text text-anchor="middle" x="2243.27" y="-924.8" font-family="Times,serif" font-size="14.00">0x21</text>
<text text-anchor="middle" x="2243.27" y="-910.8" font-family="Times,serif" font-size="14.00">[Jack] HP Out at Ext Front</text>
<text text-anchor="middle" x="2243.27" y="-896.8" font-family="Times,serif" font-size="14.00">Stereo</text>
<text text-anchor="middle" x="2243.27" y="-882.8" font-family="Times,serif" font-size="14.00">OUT HP EAPD Detect</text>
</g>
<!-- nid&#45;0c&#45;&gt;nid&#45;21&#45;in -->
<g id="edge34" class="edge">
<title>nid&#45;0c&#45;&gt;nid&#45;21&#45;in</title>
<path fill="none" stroke="gray" stroke-dasharray="5,2" d="M1937.69,-987C1987.29,-974.13 2080.2,-950.03 2150.42,-931.82"/>
<polygon fill="gray" stroke="gray" points="2151.37,-935.19 2160.17,-929.29 2149.61,-928.42 2151.37,-935.19"/>
</g>
<!-- nid&#45;0c&#45;ampin&#45;2&#45;&gt;nid&#45;0c -->
<g id="edge17" class="edge">
<title>nid&#45;0c&#45;ampin&#45;2&#45;&gt;nid&#45;0c</title>
<path fill="none" stroke="#0000ff" d="M1607.43,-1041.31C1672.42,-1031.28 1794.34,-1012.46 1858.69,-1002.53"/>
<polygon fill="#0000ff" stroke="#0000ff" points="1859.31,-1004.2 1863.98,-1001.71 1858.77,-1000.74 1859.31,-1004.2"/>
</g>
<!-- nid&#45;0c&#45;ampin&#45;11&#45;&gt;nid&#45;0c -->
<g id="edge18" class="edge">
<title>nid&#45;0c&#45;ampin&#45;11&#45;&gt;nid&#45;0c</title>
<path fill="none" stroke="#0000ff" d="M1632.65,-988.04C1699.14,-990.01 1798.11,-992.95 1855.42,-994.65"/>
<polygon fill="#0000ff" stroke="#0000ff" points="1855.45,-996.4 1860.5,-994.8 1855.55,-992.9 1855.45,-996.4"/>
</g>
<!-- nid&#45;0d -->
<g id="node26" class="node">
<title>nid&#45;0d</title>
<polygon fill="none" stroke="black" points="1944,-908 1922.99,-937.29 1880.95,-937.29 1859.94,-908 1880.95,-878.71 1922.99,-878.71 1944,-908"/>
<text text-anchor="middle" x="1901.97" y="-910.8" font-family="Times,serif" font-size="14.00">0x0d</text>
<text text-anchor="middle" x="1901.97" y="-896.8" font-family="Times,serif" font-size="14.00">Stereo</text>
</g>
<!-- nid&#45;0f&#45;ampin&#45;13 -->
<g id="node30" class="node">
<title>nid&#45;0f&#45;ampin&#45;13</title>
<polygon fill="none" stroke="#0000ff" points="2324.04,-823 2202.89,-845 2202.89,-801 2324.04,-823"/>
<text text-anchor="middle" x="2243.27" y="-818.8" font-family="Times,serif" font-size="14.00">0 (0x0d)</text>
</g>
<!-- nid&#45;0d&#45;&gt;nid&#45;0f&#45;ampin&#45;13 -->
<g id="edge26" class="edge">
<title>nid&#45;0d&#45;&gt;nid&#45;0f&#45;ampin&#45;13</title>
<path fill="none" stroke="#333333" d="M1938,-899.22C1998.68,-884.02 2123.49,-852.76 2192.92,-835.36"/>
<polygon fill="#333333" stroke="#333333" points="2193.9,-838.73 2202.75,-832.9 2192.2,-831.94 2193.9,-838.73"/>
</g>
<!-- nid&#45;0d&#45;&gt;nid&#45;1b&#45;in -->
<g id="edge32" class="edge">
<title>nid&#45;0d&#45;&gt;nid&#45;1b&#45;in</title>
<path fill="none" stroke="gray" stroke-dasharray="5,2" d="M1937.69,-917C1987.45,-929.91 2080.81,-954.12 2151.11,-972.36"/>
<polygon fill="gray" stroke="gray" points="2150.31,-975.76 2160.86,-974.89 2152.06,-968.99 2150.31,-975.76"/>
</g>
<!-- nid&#45;0d&#45;&gt;nid&#45;21&#45;in -->
<g id="edge35" class="edge">
<title>nid&#45;0d&#45;&gt;nid&#45;21&#45;in</title>
<path fill="none" stroke="#333333" d="M1944.24,-908C1995.05,-908 2082.88,-908 2150.07,-908"/>
<polygon fill="#333333" stroke="#333333" points="2150.24,-911.5 2160.24,-908 2150.24,-904.5 2150.24,-911.5"/>
</g>
<!-- nid&#45;0d&#45;ampin&#45;3&#45;&gt;nid&#45;0d -->
<g id="edge21" class="edge">
<title>nid&#45;0d&#45;ampin&#45;3&#45;&gt;nid&#45;0d</title>
<path fill="none" stroke="#0000ff" d="M1632.65,-915.96C1699.14,-913.99 1798.11,-911.05 1855.42,-909.35"/>
<polygon fill="#0000ff" stroke="#0000ff" points="1855.55,-911.1 1860.5,-909.2 1855.45,-907.6 1855.55,-911.1"/>
</g>
<!-- nid&#45;0d&#45;ampin&#45;11&#45;&gt;nid&#45;0d -->
<g id="edge22" class="edge">
<title>nid&#45;0d&#45;ampin&#45;11&#45;&gt;nid&#45;0d</title>
<path fill="none" stroke="#0000ff" d="M1607.43,-862.69C1672.42,-872.72 1794.34,-891.54 1858.69,-901.47"/>
<polygon fill="#0000ff" stroke="#0000ff" points="1858.77,-903.26 1863.98,-902.29 1859.31,-899.8 1858.77,-903.26"/>
</g>
<!-- nid&#45;0f -->
<g id="node29" class="node">
<title>nid&#45;0f</title>
<polygon fill="none" stroke="black" points="2622.93,-823 2602.81,-852.29 2562.56,-852.29 2542.43,-823 2562.56,-793.71 2602.81,-793.71 2622.93,-823"/>
<text text-anchor="middle" x="2582.68" y="-825.8" font-family="Times,serif" font-size="14.00">0x0f</text>
<text text-anchor="middle" x="2582.68" y="-811.8" font-family="Times,serif" font-size="14.00">Mono</text>
</g>
<!-- nid&#45;17&#45;in -->
<g id="node33" class="node">
<title>nid&#45;17&#45;in</title>
<polygon fill="none" stroke="green" points="3006.42,-855 2838.93,-855 2838.93,-791 3006.42,-791 3006.42,-855"/>
<text text-anchor="middle" x="2922.68" y="-839.8" font-family="Times,serif" font-size="14.00">0x17</text>
<text text-anchor="middle" x="2922.68" y="-825.8" font-family="Times,serif" font-size="14.00">[N/A] Line Out at Ext N/A</text>
<text text-anchor="middle" x="2922.68" y="-811.8" font-family="Times,serif" font-size="14.00">Mono</text>
<text text-anchor="middle" x="2922.68" y="-797.8" font-family="Times,serif" font-size="14.00">OUT</text>
</g>
<!-- nid&#45;0f&#45;&gt;nid&#45;17&#45;in -->
<g id="edge28" class="edge">
<title>nid&#45;0f&#45;&gt;nid&#45;17&#45;in</title>
<path fill="none" stroke="#333333" d="M2623.11,-823C2673.14,-823 2761.01,-823 2828.51,-823"/>
<polygon fill="#333333" stroke="#333333" points="2828.74,-826.5 2838.74,-823 2828.74,-819.5 2828.74,-826.5"/>
</g>
<!-- nid&#45;0f&#45;ampin&#45;13&#45;&gt;nid&#45;0f -->
<g id="edge25" class="edge">
<title>nid&#45;0f&#45;ampin&#45;13&#45;&gt;nid&#45;0f</title>
<path fill="none" stroke="#0000ff" d="M2324.23,-823C2390.69,-823 2482.82,-823 2536.95,-823"/>
<polygon fill="#0000ff" stroke="#0000ff" points="2537.07,-824.75 2542.07,-823 2537.07,-821.25 2537.07,-824.75"/>
</g>
<!-- nid&#45;12&#45;out -->
<g id="node31" class="node">
<title>nid&#45;12&#45;out</title>
<polygon fill="none" stroke="green" points="1266.21,-254 1123.14,-254 1123.14,-190 1266.21,-190 1266.21,-254"/>
<text text-anchor="middle" x="1194.67" y="-238.8" font-family="Times,serif" font-size="14.00">0x12</text>
<text text-anchor="middle" x="1194.67" y="-224.8" font-family="Times,serif" font-size="14.00">[Fixed] Mic at Int N/A</text>
<text text-anchor="middle" x="1194.67" y="-210.8" font-family="Times,serif" font-size="14.00">Stereo</text>
<text text-anchor="middle" x="1194.67" y="-196.8" font-family="Times,serif" font-size="14.00">IN</text>
</g>
<!-- nid&#45;23&#45;ampin&#45;18 -->
<g id="node51" class="node">
<title>nid&#45;23&#45;ampin&#45;18</title>
<polygon fill="none" stroke="#0000ff" points="1643.84,-224 1522.69,-246 1522.69,-202 1643.84,-224"/>
<text text-anchor="middle" x="1563.07" y="-219.8" font-family="Times,serif" font-size="14.00">6 (0x12)</text>
</g>
<!-- nid&#45;12&#45;out&#45;&gt;nid&#45;23&#45;ampin&#45;18 -->
<g id="edge61" class="edge">
<title>nid&#45;12&#45;out&#45;&gt;nid&#45;23&#45;ampin&#45;18</title>
<path fill="none" stroke="#333333" d="M1266.32,-222.39C1338.51,-222.78 1448.78,-223.38 1512.3,-223.73"/>
<polygon fill="#333333" stroke="#333333" points="1512.44,-227.23 1522.46,-223.78 1512.48,-220.23 1512.44,-227.23"/>
</g>
<!-- nid&#45;1b&#45;ampout -->
<g id="node35" class="node">
<title>nid&#45;1b&#45;ampout</title>
<polygon fill="none" stroke="#c8c8c8" points="2609.68,-996 2569.18,-1014 2569.18,-978 2609.68,-996"/>
</g>
<!-- nid&#45;1b&#45;in&#45;&gt;nid&#45;1b&#45;ampout -->
<g id="edge29" class="edge">
<title>nid&#45;1b&#45;in&#45;&gt;nid&#45;1b&#45;ampout</title>
<path fill="none" stroke="#c8c8c8" d="M2325.95,-996C2405.25,-996 2519.88,-996 2563.72,-996"/>
<polygon fill="#c8c8c8" stroke="#c8c8c8" points="2563.94,-997.75 2568.94,-996 2563.94,-994.25 2563.94,-997.75"/>
</g>
<!-- nid&#45;1b&#45;ampin -->
<g id="node36" class="node">
<title>nid&#45;1b&#45;ampin</title>
<polygon fill="none" stroke="#0000ff" points="109.57,-408 69.07,-426 69.07,-390 109.57,-408"/>
</g>
<!-- nid&#45;1b&#45;ampin&#45;&gt;nid&#45;1b&#45;out -->
<g id="edge30" class="edge">
<title>nid&#45;1b&#45;ampin&#45;&gt;nid&#45;1b&#45;out</title>
<path fill="none" stroke="#0000ff" d="M109.67,-408C161.18,-408 278.01,-408 359.51,-408"/>
<polygon fill="#0000ff" stroke="#0000ff" points="359.83,-409.75 364.83,-408 359.83,-406.25 359.83,-409.75"/>
</g>
<!-- nid&#45;22&#45;ampin&#45;24&#45;&gt;nid&#45;22 -->
<g id="edge36" class="edge">
<title>nid&#45;22&#45;ampin&#45;24&#45;&gt;nid&#45;22</title>
<path fill="none" stroke="#c8c8c8" d="M1595.77,-548.75C1657.55,-565.8 1793.93,-603.45 1861.48,-622.1"/>
<polygon fill="#c8c8c8" stroke="#c8c8c8" points="1861.33,-623.87 1866.61,-623.52 1862.26,-620.5 1861.33,-623.87"/>
</g>
<!-- nid&#45;22&#45;ampin&#45;25&#45;&gt;nid&#45;22 -->
<g id="edge37" class="edge">
<title>nid&#45;22&#45;ampin&#45;25&#45;&gt;nid&#45;22</title>
<path fill="none" stroke="#c8c8c8" d="M1590.83,-778.18C1606.38,-772.32 1626.29,-764.57 1643.7,-757 1724.53,-721.85 1817.16,-675.73 1866.22,-650.82"/>
<polygon fill="#c8c8c8" stroke="#c8c8c8" points="1867.17,-652.3 1870.83,-648.47 1865.58,-649.18 1867.17,-652.3"/>
</g>
<!-- nid&#45;22&#45;ampin&#45;26&#45;&gt;nid&#45;22 -->
<g id="edge38" class="edge">
<title>nid&#45;22&#45;ampin&#45;26&#45;&gt;nid&#45;22</title>
<path fill="none" stroke="#c8c8c8" d="M1595.77,-717.25C1657.55,-700.2 1793.93,-662.55 1861.48,-643.9"/>
<polygon fill="#c8c8c8" stroke="#c8c8c8" points="1862.26,-645.5 1866.61,-642.48 1861.33,-642.13 1862.26,-645.5"/>
</g>
<!-- nid&#45;22&#45;ampin&#45;27&#45;&gt;nid&#45;22 -->
<g id="edge39" class="edge">
<title>nid&#45;22&#45;ampin&#45;27&#45;&gt;nid&#45;22</title>
<path fill="none" stroke="#c8c8c8" d="M1617.08,-606.88C1683.41,-612.98 1795.75,-623.32 1857.34,-628.99"/>
<polygon fill="#c8c8c8" stroke="#c8c8c8" points="1857.28,-630.74 1862.42,-629.45 1857.6,-627.25 1857.28,-630.74"/>
</g>
<!-- nid&#45;22&#45;ampin&#45;29&#45;&gt;nid&#45;22 -->
<g id="edge40" class="edge">
<title>nid&#45;22&#45;ampin&#45;29&#45;&gt;nid&#45;22</title>
<path fill="none" stroke="#c8c8c8" d="M1590.83,-487.82C1606.38,-493.68 1626.29,-501.43 1643.7,-509 1724.53,-544.15 1817.16,-590.27 1866.22,-615.18"/>
<polygon fill="#c8c8c8" stroke="#c8c8c8" points="1865.58,-616.82 1870.83,-617.53 1867.17,-613.7 1865.58,-616.82"/>
</g>
<!-- nid&#45;22&#45;ampin&#45;11&#45;&gt;nid&#45;22 -->
<g id="edge41" class="edge">
<title>nid&#45;22&#45;ampin&#45;11&#45;&gt;nid&#45;22</title>
<path fill="none" stroke="#c8c8c8" d="M1617.08,-659.12C1683.41,-653.02 1795.75,-642.68 1857.34,-637.01"/>
<polygon fill="#c8c8c8" stroke="#c8c8c8" points="1857.6,-638.75 1862.42,-636.55 1857.28,-635.26 1857.6,-638.75"/>
</g>
<!-- nid&#45;23&#45;ampin&#45;24&#45;&gt;nid&#45;23 -->
<g id="edge48" class="edge">
<title>nid&#45;23&#45;ampin&#45;24&#45;&gt;nid&#45;23</title>
<path fill="none" stroke="#c8c8c8" d="M1590.51,-109.73C1650.04,-131.64 1794.77,-184.91 1863.52,-210.21"/>
<polygon fill="#c8c8c8" stroke="#c8c8c8" points="1863.04,-211.9 1868.33,-211.99 1864.24,-208.62 1863.04,-211.9"/>
</g>
<!-- nid&#45;23&#45;ampin&#45;25&#45;&gt;nid&#45;23 -->
<g id="edge49" class="edge">
<title>nid&#45;23&#45;ampin&#45;25&#45;&gt;nid&#45;23</title>
<path fill="none" stroke="#c8c8c8" d="M1591.84,-400.51C1607.37,-394.88 1626.93,-387.24 1643.7,-379 1728.2,-337.48 1821.48,-277.43 1869.12,-245.63"/>
<polygon fill="#c8c8c8" stroke="#c8c8c8" points="1870.13,-247.07 1873.31,-242.83 1868.18,-244.16 1870.13,-247.07"/>
</g>
<!-- nid&#45;23&#45;ampin&#45;26&#45;&gt;nid&#45;23 -->
<g id="edge50" class="edge">
<title>nid&#45;23&#45;ampin&#45;26&#45;&gt;nid&#45;23</title>
<path fill="none" stroke="#c8c8c8" d="M1590.51,-338.27C1650.04,-316.36 1794.77,-263.09 1863.52,-237.79"/>
<polygon fill="#c8c8c8" stroke="#c8c8c8" points="1864.24,-239.38 1868.33,-236.01 1863.04,-236.1 1864.24,-239.38"/>
</g>
<!-- nid&#45;23&#45;ampin&#45;27&#45;&gt;nid&#45;23 -->
<g id="edge51" class="edge">
<title>nid&#45;23&#45;ampin&#45;27&#45;&gt;nid&#45;23</title>
<path fill="none" stroke="#c8c8c8" d="M1603.71,-169.29C1667.96,-181.12 1794.22,-204.35 1859.58,-216.38"/>
<polygon fill="#c8c8c8" stroke="#c8c8c8" points="1859.33,-218.12 1864.56,-217.3 1859.96,-214.67 1859.33,-218.12"/>
</g>
<!-- nid&#45;23&#45;ampin&#45;29&#45;&gt;nid&#45;23 -->
<g id="edge52" class="edge">
<title>nid&#45;23&#45;ampin&#45;29&#45;&gt;nid&#45;23</title>
<path fill="none" stroke="#c8c8c8" d="M1591.84,-47.49C1607.37,-53.12 1626.93,-60.76 1643.7,-69 1728.2,-110.52 1821.48,-170.57 1869.12,-202.37"/>
<polygon fill="#c8c8c8" stroke="#c8c8c8" points="1868.18,-203.84 1873.31,-205.17 1870.13,-200.93 1868.18,-203.84"/>
</g>
<!-- nid&#45;23&#45;ampin&#45;11&#45;&gt;nid&#45;23 -->
<g id="edge53" class="edge">
<title>nid&#45;23&#45;ampin&#45;11&#45;&gt;nid&#45;23</title>
<path fill="none" stroke="#c8c8c8" d="M1603.71,-278.71C1667.96,-266.88 1794.22,-243.65 1859.58,-231.62"/>
<polygon fill="#c8c8c8" stroke="#c8c8c8" points="1859.96,-233.33 1864.56,-230.7 1859.33,-229.88 1859.96,-233.33"/>
</g>
<!-- nid&#45;23&#45;ampin&#45;18&#45;&gt;nid&#45;23 -->
<g id="edge54" class="edge">
<title>nid&#45;23&#45;ampin&#45;18&#45;&gt;nid&#45;23</title>
<path fill="none" stroke="#0000ff" d="M1643.91,-224C1709.51,-224 1800.17,-224 1854.45,-224"/>
<polygon fill="#0000ff" stroke="#0000ff" points="1854.59,-225.75 1859.59,-224 1854.59,-222.25 1854.59,-225.75"/>
</g>
</g>
</svg>
